<svg xmlns="http://www.w3.org/2000/svg" width="4282" height="1210" viewBox="0 0 4282 1210" fill="none">
<g clip-path="url(#clip0_529_3732)">
<path d="M493 280.815C310.778 392.806 105.137 490.384 -67.5023 370.093C-78.7064 362.286 -95 369.862 -95 383.518V1246.82C-95 1255.65 -87.8366 1262.82 -79.0001 1262.82H4310C4318.84 1262.82 4326 1255.65 4326 1246.82V981.938C4326 972.744 4318.27 965.441 4309.09 965.964L4175.03 973.606C3973.08 985.119 3816.81 814.443 3727.53 632.929C3547.66 267.198 3205 163.63 2895 368.815C2585 574 2327 558.815 2057 452.815C1787 346.815 1707 348.815 1501 416.815C1295 484.815 1097 438.815 971 348.815C845 258.815 685 162.815 493 280.815Z" fill="url(#paint0_linear_529_3732)"/>
<g filter="url(#filter0_d_529_3732)">
<path d="M-45.4434 434.515C-256.643 480.915 -226.777 1059.85 -185.444 1318.51H3268.56H4558C4559.18 1275.06 4672.09 765.005 4484 583C4352.45 455.709 4120 519.486 3998 371C3615.5 -94.5339 3502 357 3268.56 532.515C3035.11 708.029 2698.56 434.515 2406.56 418.514C2114.56 402.514 1998.56 748.514 1574.56 494.514C1219.57 281.859 1082.56 326.515 750.556 532.515C418.556 738.515 218.557 376.515 -45.4434 434.515Z" fill="url(#paint1_linear_529_3732)" shape-rendering="crispEdges"/>
</g>
<path d="M-135 1210H3089.74H4280V258.642C4280 209.036 4140.4 872.535 3817.24 1022.67C3554.08 1144.92 3366.98 624.653 3031.38 789.987C2695.77 955.322 2512.33 471.978 2110.02 603.982C1707.71 735.986 1713.96 563.981 1324.16 563.981C934.355 563.981 821.792 897.991 369.452 815.988C7.58072 750.386 -117.629 1051.33 -135 1210Z" fill="url(#paint2_linear_529_3732)"/>
<path d="M4312 1354L164.137 1354H-185.863C-189.863 1137.34 -107.063 546.403 152.137 548.003C476.137 550.003 502.416 983.863 971 798C1329 656 1301 1098 1577 1098C1799.23 1098 1842.14 868.003 2200.14 1048C2462.73 1180.03 2906 1275 3352 821C3798 367 4124 1147 4312 845V1354Z" fill="url(#paint3_linear_529_3732)"/>
</g>
<defs>
<filter id="filter0_d_529_3732" x="-219" y="166.715" width="4815.68" height="1159.8" filterUnits="userSpaceOnUse" color-interpolation-filters="sRGB">
<feFlood flood-opacity="0" result="BackgroundImageFix"/>
<feColorMatrix in="SourceAlpha" type="matrix" values="0 0 0 0 0 0 0 0 0 0 0 0 0 0 0 0 0 0 127 0" result="hardAlpha"/>
<feOffset dy="4"/>
<feGaussianBlur stdDeviation="2"/>
<feComposite in2="hardAlpha" operator="out"/>
<feColorMatrix type="matrix" values="0 0 0 0 0 0 0 0 0 0 0 0 0 0 0 0 0 0 0.25 0"/>
<feBlend mode="normal" in2="BackgroundImageFix" result="effect1_dropShadow_529_3732"/>
<feBlend mode="normal" in="SourceGraphic" in2="effect1_dropShadow_529_3732" result="shape"/>
</filter>
<linearGradient id="paint0_linear_529_3732" x1="-1058.73" y1="525.719" x2="-885.452" y2="1734.34" gradientUnits="userSpaceOnUse">
<stop stop-color="#9E96F7" stop-opacity="0.13"/>
<stop offset="1" stop-color="#C189EE" stop-opacity="0.04"/>
</linearGradient>
<linearGradient id="paint1_linear_529_3732" x1="-1076.26" y1="633.529" x2="-909.092" y2="1754.87" gradientUnits="userSpaceOnUse">
<stop stop-color="#9E96F7" stop-opacity="0.13"/>
<stop offset="1" stop-color="#C189EE" stop-opacity="0.04"/>
</linearGradient>
<linearGradient id="paint2_linear_529_3732" x1="-1010.09" y1="750.729" x2="-935.212" y2="1511.91" gradientUnits="userSpaceOnUse">
<stop stop-color="#9E96F7" stop-opacity="0.13"/>
<stop offset="1" stop-color="#C189EE" stop-opacity="0.04"/>
</linearGradient>
<linearGradient id="paint3_linear_529_3732" x1="-1040.98" y1="780.996" x2="-922.388" y2="1724.97" gradientUnits="userSpaceOnUse">
<stop stop-color="#9E96F7" stop-opacity="0.13"/>
<stop offset="1" stop-color="#C189EE" stop-opacity="0.04"/>
</linearGradient>
<clipPath id="clip0_529_3732">
<rect width="4282" height="1210" fill="white"/>
</clipPath>
</defs>
</svg>